HIERARCHY
ROOT root     
{
	OFFSET 0.0000 0.0000 0.0000
	CHANNELS 6 Xposition Yposition Zposition Zrotation Yrotation Xrotation
	JOINT pelvis   
	{
		OFFSET 0.0000 0.0000 0.0000
		CHANNELS 3 Zrotation Yrotation Xrotation
		JOINT thorax   
		{
			OFFSET 0.0000 23.0750 -5.0000
			CHANNELS 3 Zrotation Yrotation Xrotation
			JOINT rclavicle
			{
				OFFSET 0.0000 28.0009 0.0000
				CHANNELS 3 Zrotation Yrotation Xrotation
				JOINT rhumerus 
				{
					OFFSET -18.5725 5.5939 0.0000
					CHANNELS 3 Zrotation Yrotation Xrotation
					JOINT rradius  
					{
						OFFSET -24.8459 0.0000 0.0000
						CHANNELS 3 Zrotation Yrotation Xrotation
						JOINT rhand    
						{
							OFFSET -24.5477 0.0000 0.0000
							CHANNELS 3 Zrotation Yrotation Xrotation
							End Site
							{
								OFFSET -8.1826 0.0000 0.0000
							}
						}
					}
				}
			}
			JOINT lclavicle
			{
				OFFSET 0.0000 28.0009 0.0000
				CHANNELS 3 Zrotation Yrotation Xrotation
				JOINT lhumerus 
				{
					OFFSET 18.5725 5.5939 0.0000
					CHANNELS 3 Zrotation Yrotation Xrotation
					JOINT lradius  
					{
						OFFSET 24.8459 0.0000 0.0000
						CHANNELS 3 Zrotation Yrotation Xrotation
						JOINT lhand    
						{
							OFFSET 24.5477 0.0000 0.0000
							CHANNELS 3 Zrotation Yrotation Xrotation
							End Site
							{
								OFFSET 8.1826 0.0000 0.0000
							}
						}
					}
				}
			}
			JOINT head     
			{
				OFFSET 0.0000 35.2030 0.0000
				CHANNELS 3 Zrotation Yrotation Xrotation
				End Site
				{
					OFFSET 0.0000 11.7343 0.0000
				}
			}
		}
		JOINT rfemur   
		{
			OFFSET -8.2817 0.0000 0.0000
			CHANNELS 3 Zrotation Yrotation Xrotation
			JOINT rtibia   
			{
				OFFSET 0.0000 -43.3627 0.0000
				CHANNELS 3 Zrotation Yrotation Xrotation
				JOINT rfoot    
				{
					OFFSET 0.0000 -38.2947 0.0000
					CHANNELS 3 Zrotation Yrotation Xrotation
					JOINT rtoes    
					{
						OFFSET 0.0000 0.0000 16.6054
						CHANNELS 3 Zrotation Yrotation Xrotation
						End Site
						{
							OFFSET 0.0000 0.0000 5.5351
						}
					}
				}
			}
		}
		JOINT lfemur   
		{
			OFFSET 8.2817 0.0000 0.0000
			CHANNELS 3 Zrotation Yrotation Xrotation
			JOINT ltibia   
			{
				OFFSET 0.0000 -43.3627 0.0000
				CHANNELS 3 Zrotation Yrotation Xrotation
				JOINT lfoot    
				{
					OFFSET 0.0000 -38.2947 0.0000
					CHANNELS 3 Zrotation Yrotation Xrotation
					JOINT ltoes    
					{
						OFFSET 0.0000 0.0000 16.6054
						CHANNELS 3 Zrotation Yrotation Xrotation
						End Site
						{
							OFFSET 0.0000 0.0000 5.5351
						}
					}
				}
			}
		}
	}
}
MOTION
Frames: 9
Frame Time: .0333333
-50.831 80.987 -6.1135 79.8095 86.1372 97.2563 0 -0 0 -0.0428864 -1.88245 17.0877 21.3894 -9.10385 2.99047e-05 56.2579 -3.23061 9.27392 -180 86.1845 -180 -8.15783 3.20875 -0.228894 -13.802 15.3458 2.04869e-05 -51.855 25.5412 10.8515 -3.03699e-06 -79.2615 3.19392e-06 -4.25827 8.93293 -0.332798 1.58412 -5.64518 -7.18111 2.89899 -6.03895 -29.8696 -0 -0 47.5923 -1.67731e-05 -5.20482 -17.5247 1.57123 -5.57717e-06 -20.0894 -7.71316 10.9535 -50.3447 -0 -0 65.8002 -1.86082e-05 13.3645 -4.32563 -1.02648 9.05342e-06 -20.1067 
-50.195 80.976 -6.0923 77.6104 86.1545 95.0669 0 -0 0 -0.0991929 -1.51789 17.1213 21.2833 -9.06626 -2.50054e-05 56.0567 -3.08746 9.42566 -180 85.8968 -180 -8.09015 3.26676 -0.231101 -13.831 15.5955 0.000109799 -52.0303 25.7787 10.4392 -1.80896e-06 -79.5467 1.50583e-06 -4.23738 8.9189 -0.330591 1.4914 -5.72586 -7.17381 2.90929 -6.21366 -29.3643 -0 -0 47.4658 9.61917e-06 -4.99198 -17.6312 1.51552 -1.26624e-07 -20.6969 -8.2863 10.9792 -51.188 -0 -0 64.3533 -2.23008e-05 13.1576 -4.27802 -0.999004 1.15004e-06 -19.9662 
-49.552 80.957 -6.0736 75.4228 86.1708 92.8932 0 -0 0 -0.151603 -1.16825 17.1439 21.1835 -9.03648 1.0517e-05 55.8604 -2.95765 9.56727 -180 85.6019 -180 -8.0398 3.29521 -0.231601 -13.863 15.8513 -7.76667e-05 -52.2065 26.0016 10.0486 -1.85666e-06 -79.8474 1.55363e-06 -4.22251 8.90327 -0.3289 1.40339 -5.80437 -7.18271 2.92067 -6.38176 -28.8605 -0 -0 47.3525 1.64646e-06 -4.77673 -17.7321 1.45795 7.00177e-06 -21.3196 -8.85263 10.9969 -51.9946 -0 -0 62.8618 2.41767e-05 12.9471 -4.16683 -0.956987 6.53172e-07 -19.7855 
-48.902 80.931 -6.0573 73.266 86.1961 90.7533 0 -0 0 -0.201306 -0.833896 17.1598 21.0909 -9.01416 2.22755e-05 55.6704 -2.84371 9.69617 -180 85.3202 -180 -8.00419 3.30009 -0.230899 -13.8965 16.1142 -7.15778e-05 -52.3812 26.2058 9.68005 -1.13447e-06 -80.1383 1.34871e-06 -4.21915 8.88476 -0.327905 1.32242 -5.88385 -7.21509 2.93193 -6.54567 -28.3607 -0 -0 47.2532 -2.86355e-06 -4.55768 -17.82 1.39751 -5.07916e-06 -22.0167 -9.41587 11.0093 -52.7673 -0 -0 61.3355 -1.72777e-06 12.7457 -4.01204 -0.906707 7.05036e-06 -19.6438 
-48.242 80.897 -6.0437 71.1636 86.2154 88.6706 0 -0 0 -0.249493 -0.515798 17.1681 21.009 -8.99587 5.59018e-05 55.4854 -2.75028 9.80538 -180 85.0476 -180 -7.9773 3.2863 -0.2292 -13.936 16.3761 -8.90982e-06 -52.5538 26.3907 9.33199 -3.41672e-06 -80.4273 3.57351e-06 -4.22512 8.8579 -0.327401 1.2498 -5.96661 -7.27562 2.94144 -6.7111 -27.8613 -0 -0 47.169 -3.76276e-06 -4.33154 -17.8966 1.33342 4.76873e-06 -22.7738 -9.97863 11.0143 -53.504 -0 -0 59.7783 1.90383e-05 12.5547 -3.83982 -0.854501 4.85868e-07 -19.5717 
-47.574 80.856 -6.0327 69.1683 86.2361 86.6951 0 -0 0 -0.2971 -0.213396 17.1759 20.9409 -8.98064 4.64578e-05 55.3087 -2.68006 9.89109 -180 84.7726 -180 -7.95518 3.26084 -0.226802 -13.9818 16.6369 4.82082e-05 -52.7235 26.5497 9.0056 -2.0154e-06 -80.7113 1.71255e-06 -4.23961 8.82133 -0.327202 1.18621 -6.05516 -7.36738 2.9484 -6.88244 -27.3639 -0 -0 47.1003 9.57499e-06 -4.09671 -17.959 1.26514 6.17694e-06 -23.5995 -10.5423 11.0131 -54.198 -0 -0 58.1844 3.85566e-06 12.3731 -3.67101 -0.804705 -7.02905e-07 -19.6275 
-46.896 80.808 -6.0238 67.2831 86.2699 84.8288 0 -0 0 -0.344106 0.0748993 17.1832 20.8871 -8.96766 5.67297e-07 55.1371 -2.63445 9.95259 -180 84.5043 -180 -7.93611 3.23275 -0.224293 -14.0296 16.8992 -1.76891e-05 -52.8943 26.6768 8.69865 -1.76724e-06 -80.9813 2.07001e-06 -4.26424 8.77841 -0.327504 1.13232 -6.15108 -7.49021 2.95315 -7.06251 -26.8655 -0 -0 47.0455 -2.50933e-05 -3.8542 -17.9945 1.19237 -1.19345e-05 -24.6177 -11.1065 11.0082 -54.8402 -0 -0 56.5509 -8.42874e-06 12.188 -3.51018 -0.757596 -1.89947e-06 -19.9576 
-46.206 80.754 -6.0171 65.4923 86.2903 83.052 0 -0 0 -0.390008 0.350203 17.1939 20.8494 -8.95487 4.85279e-05 54.9724 -2.61621 9.98567 -180 84.225 -180 -7.91387 3.20615 -0.221795 -14.0821 17.156 -6.13326e-05 -53.0636 26.7741 8.41065 -1.50234e-06 -81.2262 1.28826e-06 -4.28631 8.72415 -0.327099 1.08661 -6.25404 -7.64029 2.95448 -7.25729 -26.3597 -0 -0 47.0061 1.99094e-05 -3.60036 -18.0245 1.1153 4.82419e-06 -25.6589 -11.6678 10.9988 -55.4156 -0 -0 54.8679 4.89458e-06 11.9824 -3.37125 -0.715106 -3.02671e-06 -20.4665 
-45.502 80.691 -6.0119 63.7701 86.3198 81.3355 0 -0 0 -0.4329 0.615901 17.209 20.8256 -8.94125 8.60607e-05 54.8152 -2.62663 9.99226 -180 83.9449 -180 -7.88789 3.18813 -0.2199 -14.136 17.4092 0.000119445 -53.2377 26.838 8.13884 -3.83465e-06 -81.4581 3.99133e-06 -4.30585 8.66562 -0.326406 1.04752 -6.36291 -7.81106 2.95382 -7.46652 -25.845 -0 -0 46.9834 1.49912e-05 -3.33794 -18.0314 1.03421 -1.87919e-06 -26.8911 -12.2197 10.9887 -55.91 -0 -0 53.1263 -6.52337e-06 11.7364 -3.23112 -0.670897 -4.9366e-06 -21.311 
